<svg height="512" viewBox="0 0 64 64" width="512" xmlns="http://www.w3.org/2000/svg" xmlns:xlink="http://www.w3.org/1999/xlink"><linearGradient id="New_Gradient_Swatch" gradientUnits="userSpaceOnUse" x1="32.5" x2="32.5" y1="64.246" y2="-.032"><stop offset="0" stop-color="#e93e3a"/><stop offset=".35" stop-color="#ed683c"/><stop offset=".7" stop-color="#f3903f"/><stop offset="1" stop-color="#fdc70c"/></linearGradient><linearGradient id="New_Gradient_Swatch-2" x1="33" x2="33" xlink:href="#New_Gradient_Swatch" y1="64.246" y2="-.032"/><path d="m55 2h-42a3 3 0 0 0 -3 3v5.142a3.981 3.981 0 0 0 0 7.716v4.284a3.981 3.981 0 0 0 0 7.716v4.284a3.981 3.981 0 0 0 0 7.716v4.284a3.981 3.981 0 0 0 0 7.716v5.142a3 3 0 0 0 3 3h42a3 3 0 0 0 3-3v-54a3 3 0 0 0 -3-3zm-46 12a1.993 1.993 0 0 1 1-1.722v3.444a1.993 1.993 0 0 1 -1-1.722zm0 12a1.993 1.993 0 0 1 1-1.722v3.444a1.993 1.993 0 0 1 -1-1.722zm0 12a1.993 1.993 0 0 1 1-1.722v3.444a1.993 1.993 0 0 1 -1-1.722zm0 12a1.993 1.993 0 0 1 1-1.722v3.444a1.993 1.993 0 0 1 -1-1.722zm4 10a1 1 0 0 1 -1-1v-10.722a1.993 1.993 0 0 1 1 1.722h2a4 4 0 0 0 -3-3.858v-9.864a1.993 1.993 0 0 1 1 1.722h2a4 4 0 0 0 -3-3.858v-9.864a1.993 1.993 0 0 1 1 1.722h2a4 4 0 0 0 -3-3.858v-9.864a1.993 1.993 0 0 1 1 1.722h2a4 4 0 0 0 -3-3.858v-5.142a1 1 0 0 1 1-1h38a1 1 0 0 1 1 1v54a1 1 0 0 1 -1 1zm43-1a1 1 0 0 1 -1 1h-1.184a2.966 2.966 0 0 0 .184-1v-54a2.966 2.966 0 0 0 -.184-1h1.184a1 1 0 0 1 1 1z" fill="url(#New_Gradient_Swatch)"/><g fill="url(#New_Gradient_Swatch-2)"><path d="m27.08 33 .92 11.083a1 1 0 0 0 1 .917h8a1 1 0 0 0 1-.917l.92-11.083h.08a1 1 0 0 0 1-1v-4a1 1 0 0 0 -1-1h-.22l-.81-3.243a1 1 0 0 0 -.97-.757h-8a1 1 0 0 0 -.97.757l-.811 3.243h-.219a1 1 0 0 0 -1 1v4a1 1 0 0 0 1 1zm.92-4h10v2h-10zm8.08 14h-6.16l-.833-10h7.827zm-6.3-18h6.438l.5 2h-7.437z"/><path d="m47.882 13.528a1 1 0 0 0 -.882-.528h-5v-2a1 1 0 0 0 -1-1h-16a1 1 0 0 0 -1 1v2h-5a1 1 0 0 0 -.832 1.555l1.632 2.445-1.63 2.445a1 1 0 0 0 .83 1.555h8a1 1 0 0 0 .949-1.316l-.561-1.684h11.225l-.561 1.684a1 1 0 0 0 .948 1.316h8a1 1 0 0 0 .832-1.555l-1.632-2.445 1.63-2.445a1 1 0 0 0 .052-1.027zm-21.882-1.528h14v4h-14zm-.387 7h-4.744l.963-1.445a1 1 0 0 0 0-1.11l-.963-1.445h3.131v2a1 1 0 0 0 1 1h.279zm18.555-1.445.964 1.445h-4.744l.333-1h.279a1 1 0 0 0 1-1v-2h3.132l-.964 1.445a1 1 0 0 0 0 1.11z"/><path d="m26 48h14v2h-14z"/><path d="m24 52h18v2h-18z"/></g></svg>